<?xml version="1.0" encoding="utf-8"?>
<!-- Generator: Adobe Illustrator 28.0.0, SVG Export Plug-In . SVG Version: 6.00 Build 0)  -->
<svg version="1.1" id="Layer_1" xmlns="http://www.w3.org/2000/svg" xmlns:xlink="http://www.w3.org/1999/xlink" x="0px" y="0px"
	 viewBox="0 0 1195.89 769.67" style="enable-background:new 0 0 1195.89 769.67;" xml:space="preserve">
<style type="text/css">
	.st0{fill:#1B0A33;}
	.st1{fill:#D8CFE5;}
	.st2{fill:none;}
	.st3{fill:#FFCC66;}
	.st4{fill:#5A4080;}
	.st5{fill:#FFF2D9;}
	.st6{fill:#292133;}
	.st7{fill:#110B1A;}
</style>
<path class="st0" d="M1134.76,769.67H61.12C27.51,769.67,0,742.16,0,708.54V61.12C0,27.51,27.51,0,61.12,0h1073.64
	c33.62,0,61.12,27.51,61.12,61.12v647.42C1195.89,742.16,1168.38,769.67,1134.76,769.67z"/>
<path class="st1" d="M1109.76,743.99H86.13c-33.62,0-61.12-27.51-61.12-61.12V86.13C25,52.51,52.51,25,86.13,25h1023.64
	c33.62,0,61.12,27.51,61.12,61.12v596.74C1170.89,716.48,1143.38,743.99,1109.76,743.99z"/>
<rect x="581.78" y="584.49" class="st2" width="5" height="5"/>
<rect x="282.78" y="579.49" class="st2" width="5" height="5"/>
<rect x="581.75" y="177.48" class="st2" width="5" height="7"/>
<rect x="282.75" y="172.48" class="st2" width="5" height="7"/>
<rect x="576.75" y="179.48" class="st2" width="5" height="5"/>
<rect x="277.75" y="174.48" class="st2" width="5" height="5"/>
<rect x="476.75" y="128.73" class="st2" width="5" height="5"/>
<rect x="476.75" y="177.48" class="st2" width="5" height="7"/>
<rect x="177.75" y="172.48" class="st2" width="5" height="7"/>
<path d="M586.75,184.48"/>
<path d="M287.75,179.48"/>
<line class="st2" x1="597.94" y1="716.77" x2="899.77" y2="622.75"/>
<line class="st2" x1="596.73" y1="0" x2="596.73" y2="25"/>
<line class="st2" x1="0" y1="384.49" x2="25" y2="384.49"/>
<line class="st2" x1="596.73" y1="744.67" x2="596.73" y2="769.67"/>
<line class="st2" x1="1170.89" y1="384.49" x2="1195.89" y2="384.49"/>
<rect x="451.84" y="187.73" class="st3" width="100" height="400"/>
<path class="st4" d="M551.84,592.73v57.65c0,6.79-5.4,12.35-12,12.35h-76c-6.6,0-12-5.56-12-12.35v-57.65"/>
<rect x="551.85" y="587.73" class="st2" width="5" height="5"/>
<rect x="551.82" y="180.72" class="st2" width="5" height="7"/>
<rect x="546.82" y="182.72" class="st2" width="5" height="5"/>
<rect x="446.82" y="131.97" class="st2" width="5" height="5"/>
<rect x="446.82" y="180.72" class="st2" width="5" height="7"/>
<polygon class="st5" points="451.82,182.72 551.82,182.72 519.14,136.97 484.5,136.97 "/>
<polygon class="st6" points="488.07,131.97 515.57,131.97 501.82,112.72 "/>
<path d="M556.82,187.72"/>
<polygon class="st7" points="701.44,390.23 568.01,203.43 568.01,431.79 627.73,388.49 "/>
<line class="st2" x1="568.01" y1="511.78" x2="748.18" y2="455.66"/>
<rect x="615.73" y="363.49" transform="matrix(0.9548 -0.2974 0.2974 0.9548 -89.2498 205.3443)" class="st7" width="29" height="65"/>
</svg>
