<?xml version="1.0" encoding="utf-8"?>
<!-- Generator: Adobe Illustrator 28.0.0, SVG Export Plug-In . SVG Version: 6.00 Build 0)  -->
<svg version="1.1" id="Layer_1" xmlns="http://www.w3.org/2000/svg" xmlns:xlink="http://www.w3.org/1999/xlink" x="0px" y="0px"
	 viewBox="0 0 1195.89 769.67" style="enable-background:new 0 0 1195.89 769.67;" xml:space="preserve">
<style type="text/css">
	.st0{fill:#EBE6F2;}
	.st1{fill:none;}
</style>
<path d="M1134.76,769.67H61.12C27.51,769.67,0,742.16,0,708.54V61.12C0,27.51,27.51,0,61.12,0h1073.64
	c33.62,0,61.12,27.51,61.12,61.12v647.42C1195.89,742.16,1168.38,769.67,1134.76,769.67z"/>
<path class="st0" d="M1109.76,743.99H86.13c-33.62,0-61.12-27.51-61.12-61.12V86.13C25,52.51,52.51,25,86.13,25h1023.64
	c33.62,0,61.12,27.51,61.12,61.12v596.74C1170.89,716.48,1143.38,743.99,1109.76,743.99z"/>
<rect x="581.78" y="584.49" class="st1" width="5" height="5"/>
<rect x="282.78" y="579.49" class="st1" width="5" height="5"/>
<rect x="581.75" y="177.48" class="st1" width="5" height="7"/>
<rect x="282.75" y="172.48" class="st1" width="5" height="7"/>
<rect x="576.75" y="179.48" class="st1" width="5" height="5"/>
<rect x="277.75" y="174.48" class="st1" width="5" height="5"/>
<rect x="476.75" y="128.73" class="st1" width="5" height="5"/>
<rect x="476.75" y="177.48" class="st1" width="5" height="7"/>
<rect x="177.75" y="172.48" class="st1" width="5" height="7"/>
<path d="M586.75,184.48"/>
<path d="M287.75,179.48"/>
<line class="st1" x1="597.94" y1="716.77" x2="899.77" y2="622.75"/>
<line class="st1" x1="596.73" y1="0" x2="596.73" y2="25"/>
<line class="st1" x1="0" y1="384.49" x2="25" y2="384.49"/>
<line class="st1" x1="596.73" y1="744.67" x2="596.73" y2="769.67"/>
<line class="st1" x1="1170.89" y1="384.49" x2="1195.89" y2="384.49"/>
<rect x="523.84" y="201.73" width="100" height="400"/>
<path d="M623.84,606.73v57.65c0,6.79-5.4,12.35-12,12.35h-76c-6.6,0-12-5.56-12-12.35v-57.65"/>
<rect x="551.85" y="587.73" class="st1" width="5" height="5"/>
<rect x="551.82" y="180.72" class="st1" width="5" height="7"/>
<rect x="546.82" y="182.72" class="st1" width="5" height="5"/>
<rect x="446.82" y="131.97" class="st1" width="5" height="5"/>
<rect x="446.82" y="180.72" class="st1" width="5" height="7"/>
<polygon points="523.82,196.72 623.82,196.72 591.14,150.97 556.5,150.97 "/>
<polygon points="560.07,145.97 587.57,145.97 573.82,126.72 "/>
<path d="M556.82,187.72"/>
<polygon points="773.44,404.23 640.01,217.43 640.01,445.79 699.73,402.49 "/>
<line class="st1" x1="568.01" y1="511.78" x2="748.18" y2="455.66"/>
<rect x="687.73" y="377.49" transform="matrix(0.9548 -0.2974 0.2974 0.9548 -90.1557 227.39)" width="29" height="65"/>
</svg>
